<?xml version="1.0" encoding="UTF-8" standalone="no"?>
<svg width="460px" height="136px" viewBox="0 0 460 136" version="1.1" xmlns="http://www.w3.org/2000/svg" xmlns:xlink="http://www.w3.org/1999/xlink">
    <!-- Generator: Sketch 3.8.3 (29802) - http://www.bohemiancoding.com/sketch -->
    <title>pipedream-logo</title>
    <desc>Created with Sketch.</desc>
    <defs>
        <polygon id="path-1" points="59.8461368 0.728 0 0.728 0 67.8641133 0 135.000227 59.8461368 135.000227 59.8461368 0.728"></polygon>
        <polygon id="path-3" points="4.487 4.28882086 4.487 0.803730857 0.820387586 0.803730857 0.820387586 4.28882086 4.487 4.28882086"></polygon>
    </defs>
    <g id="Page-1" stroke="none" stroke-width="1" fill="none" fill-rule="evenodd">
        <g id="pipedream-logo" transform="translate(0.000000, -1.000000)">
            <g id="Group-3" transform="translate(0.000000, 0.272000)">
                <mask id="mask-2" fill="white">
                    <use xlink:href="#path-1"></use>
                </mask>
                <g id="Clip-2"></g>
                <path d="M0,124.8607 C1.599,120.6327 3.148,116.3857 4.805,112.1807 C13.025,91.3217 21.261,70.4687 29.515,49.6237 C34.749,36.4067 40.014,23.2027 45.288,10.0017 C46.368,7.2977 47.546,4.6317 48.76,1.7547 C48.187,1.8287 47.743,1.8347 47.328,1.9457 C43.378,3.0007 40.051,5.2247 36.887,7.6867 C28.628,14.1147 21.701,21.8347 15.388,30.1297 C12.767,33.5737 10.23,37.0817 7.653,40.5597 C6.787,41.7277 5.995,41.9747 4.79,41.1987 C1.23,38.9067 -0.283,35.1557 3.145,31.6147 C9.597,24.9507 16.154,18.3847 23.401,12.5727 C28.047,8.8467 32.928,5.4217 38.348,2.8937 C40.344,1.9627 42.529,1.4377 44.627,0.7277 L49.393,0.7277 C52.237,1.4857 54.763,2.9137 57.257,4.4207 C59.71,5.9037 60.412,7.5557 59.397,10.2477 C57.747,14.6257 55.962,18.9527 54.258,23.3107 C40.199,59.2827 26.148,95.2587 12.071,131.2237 C11.698,132.1777 11.182,133.1387 10.51,133.8997 C9.272,135.2997 7.622,135.3357 6.177,134.1687 C3.786,132.2387 1.611,130.1087 0,127.4607 L0,124.8607" id="Fill-1" fill="#000000" mask="url(#mask-2)"></path>
            </g>
            <g id="Group-6" transform="translate(455.000000, 100.272000)">
                <mask id="mask-4" fill="white">
                    <use xlink:href="#path-3"></use>
                </mask>
                <g id="Clip-5"></g>
                <path d="M4.4875,3.197 C4.1515,3.493 3.8535,3.86 3.4705,4.072 C2.6445,4.529 1.6135,4.236 1.1185,3.452 C0.6275,2.674 0.7585,1.949 1.3975,1.319 C2.0585,0.668 3.1215,0.63 3.8425,1.227 C4.0795,1.424 4.2735,1.672 4.4875,1.897 L4.4875,3.197 Z" id="Fill-4" fill="#000000" mask="url(#mask-4)"></path>
            </g>
            <path d="M132.078,87.5782 C129.852,89.6562 127.688,91.7682 126.136,94.4002 C125.797,94.9752 125.486,95.6522 125.454,96.2962 C125.428,96.8192 125.709,97.6442 126.094,97.8252 C126.549,98.0392 127.275,97.7522 127.856,97.5842 C128.094,97.5152 128.319,97.2232 128.448,96.9782 C130.029,93.9942 131.19,90.8462 132.078,87.5782 M159.961,92.1082 C160.274,92.0032 160.398,91.9972 160.47,91.9332 C163.513,89.2392 166.623,86.6152 169.562,83.8112 C171.147,82.3002 172.486,80.4802 172.946,78.2562 C173.173,77.1612 173.145,75.9942 173.092,74.8672 C173.057,74.1232 172.491,73.8882 171.85,74.2812 C171.088,74.7492 170.321,75.2392 169.658,75.8332 C165.651,79.4162 163.016,83.9352 160.966,88.8282 C160.544,89.8352 160.318,90.9232 159.961,92.1082 M106.419,84.6152 C105.418,86.2712 104.499,87.9842 103.4,89.5722 C100.529,93.7192 97.635,97.8532 94.635,101.9072 C93.356,103.6352 91.636,104.9172 89.282,104.5202 C88.391,104.3702 87.431,104.0362 86.726,103.4942 C84.088,101.4672 81.546,99.2662 80.357,96.0482 C79.958,94.9702 80.016,93.5982 80.251,92.4382 C80.727,90.0932 81.359,87.7652 82.121,85.4962 C83.702,80.7912 85.398,76.1252 87.077,71.4532 C87.305,70.8172 87.642,70.1972 88.038,69.6492 C89.01,68.3072 90.37,67.8032 91.826,68.5602 C93.863,69.6202 95.841,70.8332 97.699,72.1802 C99.185,73.2572 99.355,74.9842 98.81,76.6092 C97.691,79.9512 96.363,83.2222 95.219,86.5552 C94.075,89.8862 93.049,93.2572 91.98,96.6142 C91.904,96.8512 91.782,97.1632 91.872,97.3482 C92.232,98.0902 92.555,98.9192 93.136,99.4462 C93.332,99.6242 94.472,99.1682 94.806,98.7222 C97.05,95.7262 99.333,92.7432 101.332,89.5852 C103.953,85.4452 106.412,81.1962 108.759,76.8952 C109.729,75.1182 110.23,73.0852 110.942,71.1672 C111.117,70.6962 111.24,70.1992 111.464,69.7532 C112.156,68.3792 113.29,67.8762 114.697,68.4962 C116.473,69.2782 118.243,70.1142 119.899,71.1192 C122.142,72.4812 122.848,74.7842 121.987,77.4402 C119.457,85.2442 116.953,93.0572 114.345,100.8352 C110.845,111.2722 107.251,121.6782 103.73,132.1092 C103.56,132.6132 103.713,133.2252 103.715,133.7882 C104.219,133.4692 104.976,133.2662 105.185,132.8122 C106.654,129.6112 108.197,126.4242 109.366,123.1092 C112.862,113.2042 116.149,103.2242 119.611,93.3062 C122.032,86.3712 124.626,79.4962 128.202,73.0462 C130.83,68.3052 132.845,67.5532 137.934,69.3862 C138.847,69.7152 139.721,70.1492 140.615,70.5282 C143.442,71.7242 144.681,74.0432 145.139,76.9152 C145.178,77.1552 145.224,77.3942 145.292,77.7832 C147.084,76.9272 148.794,76.1172 150.497,75.2922 C154.613,73.2992 158.723,71.2932 162.841,69.3042 C165.202,68.1642 167.577,68.0922 169.87,69.4462 C171.074,70.1562 172.278,70.9162 173.325,71.8342 C175.308,73.5742 175.755,75.8202 175.091,78.3312 C174.335,81.1952 172.455,83.3502 170.552,85.4722 C167.579,88.7882 164.287,91.7632 160.566,94.2252 C159.781,94.7462 159.585,95.3312 159.632,96.1922 C159.791,99.0942 162.422,100.5952 164.728,98.8792 C168.747,95.8872 172.622,92.7002 176.534,89.5662 C176.804,89.3502 176.936,88.9082 177.037,88.5442 C178.528,83.1472 180.752,78.0952 184.141,73.6082 C185.749,71.4782 187.668,69.6912 190.258,68.7972 C192.579,67.9972 194.8,68.2272 196.877,69.5672 C198.821,70.8212 200.3,72.5272 201.582,74.4102 C201.513,74.5022 201.469,74.6032 201.435,74.5992 C198.099,74.2882 195.893,76.1002 194.403,78.7312 C191.312,84.1842 188.992,89.9512 188.309,96.2522 C188.198,97.2712 188.281,98.3522 188.5,99.3562 C188.781,100.6472 189.761,101.0302 190.723,100.1782 C192.801,98.3392 194.763,96.3692 196.762,94.4432 C196.879,94.3312 196.957,94.1342 196.972,93.9692 C197.551,87.6252 199.923,81.7392 201.738,75.7252 C205,64.9102 208.487,54.1642 211.91,43.3992 C212.234,42.3792 212.666,41.3642 213.223,40.4532 C214.171,38.9052 215.741,38.3802 217.342,39.2262 C219.279,40.2492 221.175,41.3982 222.929,42.7072 C224.686,44.0162 224.658,45.9462 223.984,47.8292 C222.735,51.3192 221.257,54.7332 220.134,58.2612 C217.58,66.2842 215.141,74.3452 212.738,82.4162 C211.321,87.1742 210.059,91.9782 208.743,96.7652 C208.641,97.1392 208.502,97.6312 208.657,97.9202 C208.98,98.5212 209.397,99.2032 209.96,99.4922 C210.25,99.6412 211.102,99.1442 211.416,98.7252 C213.187,96.3622 214.974,93.9982 216.564,91.5122 C219.322,87.2012 222.033,82.8542 224.571,78.4132 C225.592,76.6262 226.085,74.5412 226.86,72.6092 C227.261,71.6122 227.651,70.5852 228.23,69.6912 C229.125,68.3102 230.539,67.7992 231.991,68.5542 C234.091,69.6442 236.145,70.8792 238.033,72.3012 C239.485,73.3942 239.527,75.1612 238.985,76.7792 C238.07,79.5082 237.004,82.1862 236.006,84.8872 C235.874,85.2422 235.765,85.6052 235.833,86.0682 C236.572,85.2882 237.274,84.4682 238.056,83.7342 C242.601,79.4702 247.147,75.2082 251.731,70.9862 C253.281,69.5582 253.612,69.6002 255.386,70.8242 C255.861,71.1522 256.333,71.4842 256.806,71.8142 C258.623,73.0812 259.181,74.4992 258.45,76.5782 C257.651,78.8502 256.747,81.0872 255.798,83.3012 C255.177,84.7532 253.941,85.0622 252.6,84.2002 C251.63,83.5772 250.696,82.8972 249.747,82.2402 C248.494,81.3722 248.176,80.6652 248.619,79.1992 C249.002,77.9282 249.544,76.7062 250.011,75.4602 C250.094,75.2382 250.155,75.0062 250.318,74.4872 C248.561,76.1492 247.002,77.5792 245.495,79.0612 C242.543,81.9642 239.666,84.9452 236.668,87.7992 C234.526,89.8382 233.251,92.2932 232.478,95.0972 C231.896,97.2122 231.239,99.3102 230.519,101.3822 C230.23,102.2142 229.783,103.0372 229.229,103.7192 C228.383,104.7622 227.229,104.9252 226.143,104.1232 C223.627,102.2632 221.497,100.0192 219.907,97.3052 C219.169,96.0462 219.414,94.7042 219.792,93.4172 C220.329,91.5892 220.972,89.7922 221.563,87.9802 C221.682,87.6152 221.766,87.2382 221.673,86.7752 C220.829,88.1002 220.022,89.4502 219.134,90.7452 C216.645,94.3702 214.163,98.0012 211.594,101.5692 C210.44,103.1732 209.002,104.5942 206.835,104.5492 C205.834,104.5282 204.657,104.3372 203.879,103.7792 C201.207,101.8622 198.699,99.7292 197.243,96.4662 C195.778,97.8472 194.36,99.1962 192.926,100.5282 C191.975,101.4112 191.063,102.3532 190.025,103.1212 C187.501,104.9882 184.812,105.0962 182.138,103.4692 C178.354,101.1682 176.795,97.5842 176.509,93.3192 C176.488,93.0072 176.506,92.6932 176.506,92.1332 C174.991,93.3432 173.661,94.4142 172.322,95.4742 C169.238,97.9152 166.183,100.3952 163.044,102.7632 C162.089,103.4842 160.945,104.0382 159.802,104.4042 C158.587,104.7942 157.317,104.6212 156.15,103.9502 C154.05,102.7432 152.263,101.1542 150.871,99.2122 C149.41,97.1752 149.312,94.7572 149.615,92.3512 C150.243,87.3812 152.516,83.0342 154.925,78.7592 C156.067,76.7342 157.357,74.7922 158.693,72.6292 C158.163,72.9152 157.797,73.1062 157.437,73.3082 C153.633,75.4392 149.834,77.5792 146.021,79.6942 C145.446,80.0132 145.158,80.3702 145.057,81.0752 C144.094,87.7952 141.573,93.9752 138.334,99.8832 C137.749,100.9502 136.969,101.9192 136.214,102.8822 C135.159,104.2262 133.699,104.6672 132.062,104.4212 C129.129,103.9812 126.721,102.4952 124.685,100.4152 C123.23,98.9292 123.024,96.7352 124.014,94.6792 C125.384,91.8372 127.488,89.5602 129.694,87.3652 C129.975,87.0852 130.231,86.7572 130.562,86.5542 C133.006,85.0602 133.792,82.6882 134.144,80.0372 C134.394,78.1472 134.803,76.2792 135.052,74.3892 C135.158,73.5802 135.054,72.7402 135.019,71.9152 C134.983,71.0902 134.631,70.2772 133.815,70.2112 C133.165,70.1582 132.314,70.4822 131.833,70.9362 C131.173,71.5592 130.714,72.4292 130.282,73.2532 C125.382,82.5892 121.57,92.3662 118.26,102.3682 C115.299,111.3162 112.127,120.1962 108.928,129.0622 C108.266,130.8972 107.162,132.5982 106.102,134.2592 C104.965,136.0392 103.163,136.6422 101.189,136.0532 C99.309,135.4922 97.426,134.7862 95.718,133.8322 C92.684,132.1382 92.134,130.7002 93.137,127.3832 C94.833,121.7692 96.637,116.1882 98.413,110.5982 C101.05,102.3012 103.703,94.0082 106.345,85.7122 C106.451,85.3802 106.513,85.0342 106.596,84.6952 C106.537,84.6682 106.478,84.6422 106.419,84.6152" id="Fill-7" fill="#000000"></path>
            <path d="M266.0073,92.2324 C269.3103,89.8564 272.2263,87.4024 274.8333,84.5934 C276.3813,82.9254 277.8993,81.2274 278.6853,79.0334 C279.1753,77.6634 279.5123,76.2774 279.0623,74.8094 C278.8503,74.1204 278.4153,73.9064 277.8493,74.2564 C276.9963,74.7834 276.1493,75.3504 275.4083,76.0204 C272.3993,78.7414 270.1883,82.0584 268.3753,85.6614 C267.3583,87.6834 266.3603,89.7104 266.0073,92.2324 M363.0193,85.4544 C364.4093,83.5404 365.8033,81.6304 367.1883,79.7144 C369.4713,76.5574 371.7453,73.3934 374.0293,70.2384 C375.5953,68.0764 377.0943,67.7604 379.4113,69.1424 C380.7423,69.9374 382.0483,70.7754 383.3413,71.6294 C385.1943,72.8524 385.9123,74.4544 385.2243,76.5704 C384.0443,80.1964 382.6493,83.7524 381.4023,87.3574 C379.8023,91.9814 378.2553,96.6224 376.7053,101.2634 C376.6043,101.5674 376.6753,101.9294 376.6653,102.2654 C377.0113,102.1554 377.4223,102.1314 377.6923,101.9234 C380.4903,99.7694 382.4523,96.9294 384.1933,93.9124 C384.4273,93.5084 384.6693,93.1094 384.9123,92.7104 C384.9263,92.6874 384.9773,92.6874 385.0823,92.6524 C385.7283,93.0814 386.0693,93.6624 385.6143,94.4244 C383.6633,97.6904 381.5163,100.8064 378.4263,103.1294 C377.1693,104.0744 375.7913,104.8404 374.1623,104.7174 C373.4443,104.6634 372.5613,104.4744 372.0803,104.0094 C370.1943,102.1864 368.3933,100.2684 366.6523,98.3044 C365.5713,97.0844 365.3713,95.5374 365.8613,94.0214 C367.3903,89.2994 368.9973,84.6024 370.5733,79.8954 C370.8433,79.0914 371.1073,78.2844 371.1713,77.3814 C369.6893,79.3674 368.2073,81.3524 366.7273,83.3384 C364.9153,85.7674 363.0793,88.1794 361.3113,90.6404 C360.7973,91.3564 360.3723,92.1784 360.0913,93.0144 C359.1713,95.7414 358.3683,98.5074 357.4523,101.2354 C357.1693,102.0754 356.7623,102.9094 356.2453,103.6264 C355.4263,104.7614 354.1353,104.9944 353.0033,104.1744 C350.4663,102.3374 348.3633,100.0694 346.7453,97.3764 C346.0363,96.1964 346.1773,94.9114 346.5613,93.7064 C347.9573,89.3184 349.4323,84.9564 350.8683,80.5824 C351.2353,79.4634 351.5713,78.3344 351.9213,77.2094 C351.8163,77.1314 351.7113,77.0534 351.6063,76.9754 C351.4973,77.1764 351.4103,77.3934 351.2763,77.5764 C347.4123,82.8394 343.4813,88.0554 339.7253,93.3944 C338.8943,94.5764 338.6533,96.1844 338.1903,97.6124 C337.7803,98.8784 337.4443,100.1684 337.0643,101.4444 C336.9723,101.7534 336.8473,102.0554 336.7113,102.3484 C335.4723,105.0124 333.8053,105.4494 331.6833,103.4614 C330.0063,101.8914 328.5013,100.1284 326.9973,98.3854 C325.9033,97.1164 325.7233,95.5704 326.1853,93.9964 C326.7823,91.9624 327.4663,89.9534 328.1123,87.9334 C328.2303,87.5654 328.3473,87.1974 328.2613,86.7254 C327.9263,87.2794 327.5943,87.8344 327.2573,88.3864 C324.2863,93.2564 321.2033,98.0504 317.4163,102.3394 C314.7513,105.3564 311.8583,105.5024 308.8553,102.8404 C307.8853,101.9794 306.8933,101.1284 306.0253,100.1694 C305.1863,99.2414 304.4943,98.1804 303.6633,97.0794 C303.2243,97.4714 302.6893,97.9284 302.1783,98.4104 C300.7073,99.7954 299.2513,101.1954 297.7793,102.5804 C295.5243,104.7034 292.7903,105.1604 289.9953,103.7964 C286.4003,102.0414 284.5393,98.9844 283.8233,95.1714 C283.5883,93.9214 283.5933,92.6264 283.4823,91.2704 C281.2833,93.0424 279.1383,94.7854 276.9763,96.5074 C274.3523,98.5984 271.7143,100.6724 269.0763,102.7474 C268.7093,103.0364 268.3233,103.3074 267.9213,103.5464 C265.6303,104.9084 263.3133,105.0684 261.1713,103.3444 C259.6623,102.1314 258.1673,100.8334 256.9503,99.3414 C255.3563,97.3864 255.2943,94.9384 255.5593,92.5334 C256.1003,87.6214 258.2673,83.2894 260.7033,79.1194 C262.2953,76.3954 264.0313,73.6884 266.1083,71.3314 C268.7643,68.3164 272.7433,67.3064 276.7433,69.9274 C277.2853,70.2834 277.8383,70.6274 278.3543,71.0184 C281.3283,73.2684 282.0793,76.0664 280.6573,79.5174 C279.5183,82.2834 277.5093,84.4214 275.5063,86.5474 C272.7253,89.4964 269.6663,92.1264 266.3223,94.4304 C265.9543,94.6844 265.6353,95.2684 265.6113,95.7154 C265.5313,97.2054 266.0173,98.5194 267.4023,99.2744 C268.7233,99.9944 269.9583,99.5254 271.0233,98.6834 C275.2953,95.3064 279.5443,91.8984 283.7753,88.4704 C284.1053,88.2034 284.3123,87.7154 284.4463,87.2904 C286.0013,82.3414 288.0853,77.6524 291.2503,73.5064 C292.5483,71.8054 294.0643,70.3104 295.9933,69.3064 C298.9063,67.7884 301.8043,67.7914 304.4143,69.8454 C306.0323,71.1194 307.3863,72.7294 308.7803,74.3294 C304.7293,74.2014 302.5133,76.5824 300.8933,79.6774 C298.4303,84.3824 296.4233,89.2784 295.6073,94.5684 C295.3913,95.9734 295.3563,97.4434 295.5003,98.8574 C295.6783,100.5964 296.7873,101.0414 298.0813,99.9144 C299.8203,98.4014 301.4363,96.7464 303.0913,95.1374 C303.2303,95.0034 303.3323,94.7644 303.3383,94.5704 C303.5083,89.5474 305.3413,84.9414 306.9333,80.2804 C307.9223,77.3874 309.0143,74.5304 310.0623,71.6584 C310.1363,71.4554 310.2303,71.2604 310.3213,71.0644 C311.6443,68.2224 313.4343,67.6434 316.1513,69.2234 C317.3343,69.9114 318.4783,70.6694 319.6313,71.4084 C322.0503,72.9584 322.6733,74.5484 321.7123,77.2964 C320.4293,80.9624 318.9733,84.5694 317.6873,88.2344 C316.7343,90.9484 315.8623,93.6964 315.1143,96.4724 C314.9153,97.2114 315.1313,98.1884 315.4643,98.9154 C315.9093,99.8834 316.7213,99.9654 317.4813,99.1954 C318.4413,98.2224 319.4403,97.2364 320.1633,96.0924 C323.2653,91.1914 326.2303,86.2044 329.3293,81.3014 C331.1313,78.4494 332.5473,75.4524 333.5253,72.2224 C333.8203,71.2474 334.3583,70.3004 334.9673,69.4754 C335.7763,68.3784 337.0463,67.9474 338.2423,68.5914 C340.3863,69.7474 342.4973,71.0104 344.4523,72.4584 C345.7683,73.4334 345.8753,75.0844 345.3363,76.5354 C344.1483,79.7374 342.7973,82.8794 341.5123,86.0454 C341.3973,86.3294 341.2763,86.6114 341.3483,87.0014 C342.4493,85.3864 343.5523,83.7724 344.6503,82.1544 C347.3013,78.2454 349.9443,74.3284 352.6043,70.4244 C353.9703,68.4194 356.3253,67.7734 358.5063,68.8364 C360.3833,69.7514 362.2343,70.7184 364.0783,71.6994 C365.7413,72.5824 366.5623,74.4424 365.9503,76.4304 C365.1373,79.0754 364.1283,81.6604 363.2033,84.2714 C363.0753,84.6334 362.9503,84.9964 362.8243,85.3584 C362.8893,85.3904 362.9543,85.4224 363.0193,85.4544" id="Fill-9" fill="#000000"></path>
            <path d="M43.744,74.5559 C45.968,74.1679 48.194,73.7859 50.417,73.3909 C61.749,71.3779 70.984,65.6959 78.834,57.4229 C85.49,50.4089 89.666,42.1549 91.737,32.7899 C93.042,26.8899 93.262,20.9709 90.972,15.2449 C90.208,13.3329 89.106,11.4939 87.854,9.8549 C85.428,6.6799 83.116,6.0809 78.974,7.8329 C75.682,9.2269 73.201,11.7479 70.886,14.3949 C65.075,21.0359 60.639,28.5909 56.485,36.3189 C48.235,51.6659 41.443,67.6739 35.108,83.8819 C33.012,89.2449 31.079,94.6719 29.043,100.0589 C28.9,100.4389 28.564,100.9449 28.233,101.0189 C27.233,101.2429 26.858,100.6639 27.28,99.5889 C30.317,91.8489 33.234,84.0589 36.449,76.3939 C41.099,65.3079 45.816,54.2439 50.79,43.2999 C54.88,34.2979 59.708,25.6739 65.763,17.8019 C68.41,14.3589 71.294,11.1359 74.849,8.5859 C76.915,7.1039 79.101,5.8619 81.689,5.5589 C86.09,5.0439 90.054,6.2709 93.321,9.1459 C98.513,13.7149 100.868,19.5929 100.751,26.5329 C100.583,36.5339 97.735,45.7029 92.305,54.0449 C89.168,58.8639 85.527,63.3279 81.161,67.0949 C73.853,73.3999 65.64,78.1799 56.38,81.0239 C52.467,82.2259 49.13,80.8539 46.267,78.2029 C45.212,77.2259 44.384,76.0039 43.453,74.8939 C43.55,74.7809 43.647,74.6689 43.744,74.5559" id="Fill-11" fill="#000000"></path>
            <path d="M450.1099,90.5314 C451.6899,86.8504 452.4329,83.1514 452.0699,79.2634 C451.8389,76.7964 450.8209,74.7034 449.0149,73.0024 C448.1709,72.2084 447.6439,72.2774 447.2319,73.3204 C445.9709,76.5094 445.2029,79.7804 445.8369,83.2374 C446.3659,86.1274 447.6049,88.6144 450.1099,90.5314 M438.9219,87.6404 C438.5309,88.8414 438.1579,89.8064 437.9019,90.8014 C437.1569,93.6894 436.7119,96.6044 437.6969,99.5274 C438.4609,101.7924 441.0489,102.7894 443.0499,101.4994 C445.9819,99.6104 447.4429,96.5924 449.0809,93.3684 C444.5709,93.3424 441.5849,90.9584 438.9219,87.6404 M425.5839,93.1094 C422.6729,96.4124 420.0079,99.3944 417.3929,102.4184 C415.5279,104.5764 413.1789,105.2694 410.5279,104.1964 C406.7659,102.6744 404.7589,99.6764 403.8529,95.8584 C403.2219,93.1984 403.5029,90.5534 404.2569,87.9584 C405.8049,82.6224 408.0499,77.6184 411.5239,73.2364 C413.0189,71.3504 414.7979,69.7894 417.1009,68.9224 C419.5399,68.0054 421.8499,68.2674 424.0059,69.7054 C425.8839,70.9594 427.3609,72.6074 428.6779,74.6204 C424.3289,74.3834 422.1929,77.0944 420.5319,80.3754 C418.3149,84.7564 416.4439,89.2824 415.6479,94.1574 C415.3789,95.8044 415.3089,97.5354 415.4949,99.1894 C415.6769,100.8094 416.6909,101.1364 417.8959,100.0554 C420.7129,97.5274 423.3339,94.7674 426.2629,92.3844 C427.8859,91.0644 427.6309,89.4394 427.8479,87.8424 C428.4269,83.5684 429.7149,79.5724 432.1989,75.9994 C433.5539,74.0514 434.9359,73.2764 437.0139,75.0094 C437.1689,75.1384 437.3729,75.2094 437.5379,75.2984 C438.4769,73.4904 439.3619,71.7284 440.3009,69.9954 C440.9249,68.8444 441.9179,68.2494 443.2519,68.4334 C447.5679,69.0294 452.0689,73.0284 453.1999,77.2394 C454.1239,80.6824 453.9169,84.0864 452.8349,87.4554 C452.4189,88.7524 451.9599,90.0354 451.4799,91.4434 C452.3799,91.8064 453.2659,92.1634 454.3789,92.6114 C453.4049,92.8674 452.6309,93.1554 451.8329,93.2544 C451.0599,93.3504 450.6609,93.6964 450.3049,94.3814 C448.8039,97.2684 447.1739,100.0764 444.5489,102.1354 C440.0179,105.6874 433.8639,105.2024 430.0809,100.8444 C428.9949,99.5944 428.2849,98.0114 427.4409,96.5584 C426.8369,95.5174 426.2969,94.4404 425.5839,93.1094" id="Fill-13" fill="#000000"></path>
            <path d="M105.1642,56.8487 C104.9582,57.6447 104.8242,58.4677 104.5332,59.2317 C103.6382,61.5857 102.6982,63.9237 101.7482,66.2557 C100.8152,68.5457 99.3852,68.9627 97.3412,67.5707 C96.2992,66.8597 95.2612,66.1417 94.2242,65.4227 C92.7372,64.3927 92.3472,63.5637 92.8712,61.8407 C93.3822,60.1597 94.0692,58.5297 94.7162,56.8927 C95.3102,55.3867 95.8912,53.8697 96.5912,52.4127 C97.5472,50.4207 98.7902,50.1287 100.5752,51.3627 C101.4942,51.9977 102.4262,52.6167 103.3202,53.2857 C104.5552,54.2077 105.0592,55.2857 105.1642,56.8487" id="Fill-15" fill="#000000"></path>
        </g>
    </g>
</svg>